<?xml version="1.0" encoding="UTF-8"?>
<!DOCTYPE svg PUBLIC "-//W3C//DTD SVG 1.1//EN" "http://www.w3.org/Graphics/SVG/1.1/DTD/svg11.dtd">
<!-- Creator: CorelDRAW X6 -->
<svg xmlns="http://www.w3.org/2000/svg" xml:space="preserve" width="2.69444in" height="2.69444in" version="1.1" style="shape-rendering:geometricPrecision; text-rendering:geometricPrecision; image-rendering:optimizeQuality; fill-rule:evenodd; clip-rule:evenodd"
viewBox="0 0 2694 2694"
 xmlns:xlink="http://www.w3.org/1999/xlink">
 <defs>
  <style type="text/css">
   <![CDATA[
    .fil1 {fill:#373435}
    .fil0 {fill:#FEFEFE}
   ]]>
  </style>
 </defs>
 <g id="Layer_x0020_1">
  <metadata id="CorelCorpID_0Corel-Layer"/>
  <polygon class="fil0" points="4,2687 2681,2687 2681,9 4,9 "/>
  <path class="fil1" d="M1972 1455l0 -172 -127 0 0 34 15 0c11,0 27,5 27,22l0 115c0,17 -5,29 -26,29l-16 0 0 34 169 0 0 -34 -18 0c-11,0 -24,-9 -24,-28z"/>
  <path class="fil1" d="M1393 1455l0 -104c0,-34 -30,-78 -96,-78 -56,0 -86,21 -96,35l0 -123 -127 0 0 34 15 0c20,0 27,5 27,22l0 213c0,17 -5,29 -26,29l-16 0 0 34 169 0 0 -34 -18 0c-11,0 -24,-9 -24,-28l0 -91c0,-37 34,-47 62,-47 28,0 46,22 45,39l0 98c0,20 -5,29 -26,29l-16 0 0 34 169 0 0 -34 -15 0c-15,0 -27,-7 -27,-28z"/>
  <path class="fil1" d="M1779 1455l0 -104c0,-34 -28,-78 -95,-78 -51,0 -89,16 -105,28l0 -18 -117 0 0 34 15 0c11,0 27,7 27,23l0 114c0,16 -5,29 -26,29l-16 0 0 34 169 0 0 -34 -17 0c-14,0 -26,-5 -26,-28l0 -91c0,-37 34,-47 62,-47 28,0 45,22 43,39l0 98c0,16 -5,29 -26,29l-16 0 0 34 169 0 0 -34 -18 0c-11,0 -24,-9 -24,-28z"/>
  <path class="fil1" d="M1021 1434c-1,9 -14,49 -63,49 -49,0 -64,-35 -64,-84 0,-46 13,-82 73,-82 60,0 59,33 59,52l42 0 0 -76c-18,-10 -77,-17 -101,-17 -105,0 -165,40 -165,122 0,85 49,125 154,125 95,0 117,-73 117,-88l-52 0z"/>
  <path class="fil1" d="M782 1378c-10,-90 -121,-103 -144,-103 -105,0 -165,40 -165,122 0,85 59,125 154,125 115,0 140,-48 147,-88l-66 0c-1,9 -5,49 -67,49 -51,0 -69,-25 -74,-61l211 0c9,-21 4,-29 5,-43zm-216 -1c4,-35 22,-60 72,-60 43,0 59,36 59,60l-130 0z"/>
  <path class="fil1" d="M508 1185l-387 0 0 98 42 0c0,-43 17,-46 37,-47l71 0 0 211c0,26 -13,36 -37,36l-23 0 0 34 204 0 0 -34 -24 0c-21,0 -36,-9 -36,-36l0 -211 76 0c17,0 34,10 34,47l42 0 0 -98z"/>
  <path class="fil1" d="M2169 1483c-49,0 -64,-35 -64,-84 0,-46 13,-84 73,-84 60,0 59,35 59,53l42 0 0 -76c-18,-10 -77,-17 -101,-17 -105,0 -165,40 -165,122 0,85 49,125 154,125 95,0 117,-73 117,-88l-52 0c-1,9 -14,49 -63,49z"/>
  <path class="fil1" d="M2504 1388c-14,-5 -61,-20 -79,-24 -18,-4 -33,-12 -33,-26 0,-18 22,-26 64,-26 54,0 62,20 62,53l39 0 0 -73c-18,-10 -77,-17 -101,-17 -28,0 -93,-3 -133,34 -14,13 -35,62 14,85 49,23 93,29 111,36 17,7 27,13 27,27 0,14 -18,28 -55,28 -37,0 -67,-7 -67,-41l0 -10 -41 0 0 68c20,7 73,20 109,20 36,0 141,-16 141,-73 0,-40 -42,-55 -59,-61z"/>
  <path class="fil1" d="M1930 1257c31,0 55,-19 55,-41 0,-23 -25,-41 -55,-41 -31,0 -55,19 -55,41 0,23 25,41 55,41z"/>
 </g>
</svg>
